<?xml version="1.0" encoding="UTF-8"?>
<svg version="1.1" xmlns="http://www.w3.org/2000/svg" width="612" height="612">
<path d="M0 0 C4.83983231 4.65368491 6.95927898 8.54606034 7.3125 15.375 C6.14457376 22.64209663 2.58424172 26.90035459 -3.140625 31.23046875 C-9.22045322 35.30395366 -17.10704831 40.375 -24.6875 40.375 C-24.35782058 42.1758516 -24.02806962 43.97669012 -23.69805908 45.77748108 C-23.38692866 47.47686032 -23.07646064 49.17636092 -22.76654053 50.8759613 C-21.83415389 55.98013858 -20.88662949 61.08093728 -19.91723633 66.17822266 C-17.6595473 78.13795981 -15.54054919 90.09422973 -13.70615292 102.125741 C-12.59178957 109.4285516 -11.41772004 116.72037531 -10.20977116 124.00827694 C-9.45735071 128.57162413 -8.73890347 133.13529114 -8.09494019 137.71530151 C-6.22288879 158.31013286 -6.22288879 158.31013286 4.03442383 175.02587891 C8.15312506 177.5837844 12.36299925 179.21565692 16.99841309 180.58488464 C20.59608347 181.81326314 23.29893873 183.78152348 26.375 186 C27.37015625 186.71542969 28.3653125 187.43085938 29.390625 188.16796875 C39.72287165 195.97240639 39.72287165 195.97240639 43.3125 199.375 C43.3125 200.035 43.3125 200.695 43.3125 201.375 C44.3025 201.705 45.2925 202.035 46.3125 202.375 C48.04715686 204.29782303 49.62602922 206.19435971 51.1875 208.25 C51.63150146 208.83064209 52.07550293 209.41128418 52.53295898 210.00952148 C59.99994118 220.06370544 63.37209708 229.87175441 62.3125 242.375 C59.10539847 256.78763701 48.12317253 267.03414927 36.1875 274.9375 C7.40379785 292.4176445 -27.89382473 303.54806269 -61.6875 303.375 C-61.67643848 304.23994756 -61.67643848 304.23994756 -61.6651535 305.12236881 C-61.48712678 319.26696857 -61.35544729 333.41139685 -61.27300262 347.55688572 C-61.23205496 354.39811948 -61.17641411 361.23859767 -61.08398438 368.0793457 C-60.99457992 374.69944739 -60.94902753 381.31897954 -60.92848206 387.93971062 C-60.91386906 390.44675875 -60.88534125 392.95377149 -60.84165955 395.46048164 C-60.55492282 412.62094634 -62.86413425 426.56352398 -69.6875 442.375 C-71.0075 442.375 -72.3275 442.375 -73.6875 442.375 C-80.82825961 424.90111278 -82.79939533 409.63625164 -82.46875 390.875 C-82.45377944 388.33099166 -82.4424153 385.78695983 -82.43444824 383.24291992 C-82.40735105 377.30387023 -82.34475504 371.36608393 -82.26365232 365.42754459 C-82.17315055 358.64857424 -82.12998034 351.86953435 -82.09008884 345.09010696 C-82.00724052 331.18440092 -81.86721682 317.27976857 -81.6875 303.375 C-83.31612976 303.27936264 -83.31612976 303.27936264 -84.97766113 303.18179321 C-86.4232642 303.09476081 -87.86886122 303.00762779 -89.31445312 302.92041016 C-90.02756653 302.87880264 -90.74067993 302.83719513 -91.47540283 302.79432678 C-125.75281575 300.70756583 -164.54074025 289.5153379 -190.6875 266.375 C-191.40679687 265.76140625 -192.12609375 265.1478125 -192.8671875 264.515625 C-199.85184851 258.13717985 -205.04939181 249.3209646 -205.92578125 239.78125 C-206.33972548 223.57206553 -198.94358392 212.46981679 -188.25 200.9453125 C-178.25648961 190.92133409 -166.88999037 182.1377623 -153.73046875 176.68359375 C-152.77515259 176.27028809 -152.77515259 176.27028809 -151.80053711 175.84863281 C-150.05551809 175.11229927 -148.28603504 174.43471709 -146.515625 173.76171875 C-143.26346201 171.01714474 -143.07608149 169.97638865 -142.15151978 165.9466095 C-141.90202198 164.86682138 -141.65252419 163.78703327 -141.39546585 162.67452431 C-140.33719123 157.74236149 -139.35403429 152.80247823 -138.43505859 147.8425293 C-138.23140182 146.75962112 -138.02774506 145.67671295 -137.81791687 144.56098938 C-137.15374259 141.02438088 -136.49473577 137.48683228 -135.8359375 133.94921875 C-135.37206938 131.47202006 -134.90792296 128.99487346 -134.44351196 126.51777649 C-133.47476165 121.3464939 -132.50831004 116.17478753 -131.54394531 111.00268555 C-130.43192032 105.03874154 -129.31632101 99.0754752 -128.19864595 93.11258763 C-127.11804789 87.34742832 -126.03923569 81.58193653 -124.96138382 75.8162632 C-124.50480395 73.3742036 -124.04789522 70.93220547 -123.59064865 68.49027061 C-122.95260965 65.08063179 -122.31658144 61.6706241 -121.68115234 58.26049805 C-121.49309525 57.2572348 -121.30503815 56.25397156 -121.11128235 55.2203064 C-120.19334254 50.28198017 -119.35040843 45.35419621 -118.6875 40.375 C-119.326875 40.2925 -119.96625 40.21 -120.625 40.125 C-130.70923651 37.65539106 -141.80932552 32.10319847 -147.6875 23.375 C-150.13819084 18.96375649 -151.3151971 15.48720934 -150.375 10.4140625 C-147.68363832 2.43172842 -140.79898282 -2.70081098 -133.6875 -6.625 C-97.09537281 -24.55428492 -33.04881683 -27.59066377 0 0 Z " fill="#D20309" transform="translate(377.6875,101.625)"/>
<path d="M0 0 C0.33 0 0.66 0 1 0 C1 2.64 1 5.28 1 8 C1.99 8.495 1.99 8.495 3 9 C1.68 9.33 0.36 9.66 -1 10 C-2.40952475 18.32219399 -3.73474149 26.65467788 -5 35 C-5.66 35 -6.32 35 -7 35 C-7.03738281 35.6084375 -7.07476562 36.216875 -7.11328125 36.84375 C-7.60535924 43.40478986 -8.61440761 49.73778636 -9.98364258 56.1640625 C-11.9357384 65.75212052 -11.2431826 73.03983838 -5.875 81.25 C-2.8406161 84.15245417 -0.34499317 85.46827533 3.5234375 86.9453125 C6 88 6 88 9.21875 89.953125 C13.31689763 92.34141292 17.55096341 93.47200902 22.125 94.625 C23.6907872 95.03123051 25.25591374 95.44001746 26.8203125 95.8515625 C27.84535889 96.11187256 27.84535889 96.11187256 28.89111328 96.37744141 C31 97 31 97 33.37084961 98.00219727 C43.1728215 101.72219533 54.51905177 101.29478012 64.8684082 101.20581055 C67.06408337 101.18748679 69.25933405 101.18530244 71.45507812 101.18554688 C83.76516035 101.15714304 95.70220153 100.68610319 107.6875 97.6875 C108.54666016 97.48705078 109.40582031 97.28660156 110.29101562 97.08007812 C119.4526351 94.85343923 127.93571851 91.21633738 136.375 87.0625 C137.05949219 86.74087891 137.74398437 86.41925781 138.44921875 86.08789062 C143.6928859 83.50678456 146.6721228 80.78102583 149.2421875 75.3984375 C150.34306236 70.46152448 150.2095352 65.66459872 150.125 60.625 C150.11597656 59.60277344 150.10695313 58.58054687 150.09765625 57.52734375 C150.0742043 55.01798478 150.04138355 52.50911664 150 50 C149.34 50 148.68 50 148 50 C147.86722656 48.85660156 147.73445312 47.71320313 147.59765625 46.53515625 C147.4194969 45.0442438 147.24109918 43.55335982 147.0625 42.0625 C146.97548828 41.30775391 146.88847656 40.55300781 146.79882812 39.77539062 C146.65675901 36.07812542 146.65675901 36.07812542 145 33 C144.7267902 31.42909033 144.50913878 29.84842472 144.31640625 28.265625 C144.13174805 26.81542969 144.13174805 26.81542969 143.94335938 25.3359375 C143.69141109 23.29451034 143.44138034 21.25284552 143.19335938 19.2109375 C143.06896484 18.23898437 142.94457031 17.26703125 142.81640625 16.265625 C142.70756104 15.37649414 142.59871582 14.48736328 142.48657227 13.57128906 C141.97283782 10.85646159 141.10444536 8.52655727 140 6 C154.52674945 12.92378837 167.60615684 20.64593067 180 31 C180.91652344 31.69480469 181.83304688 32.38960938 182.77734375 33.10546875 C183.51082031 33.73066406 184.24429688 34.35585938 185 35 C185 35.66 185 36.32 185 37 C185.99 37.33 186.98 37.66 188 38 C189.73465686 39.92282303 191.31352922 41.81935971 192.875 43.875 C193.31900146 44.45564209 193.76300293 45.03628418 194.22045898 45.63452148 C201.68744118 55.68870544 205.05959708 65.49675441 204 78 C200.79289847 92.41263701 189.81067253 102.65914927 177.875 110.5625 C149.09129785 128.0426445 113.79367527 139.17306269 80 139 C80.00737434 139.57663171 80.01474869 140.15326342 80.0223465 140.74736881 C80.20037322 154.89196857 80.33205271 169.03639685 80.41449738 183.18188572 C80.45544504 190.02311948 80.51108589 196.86359767 80.60351562 203.7043457 C80.69292008 210.32444739 80.73847247 216.94397954 80.75901794 223.56471062 C80.77363094 226.07175875 80.80215875 228.57877149 80.84584045 231.08548164 C81.13257718 248.24594634 78.82336575 262.18852398 72 278 C70.68 278 69.36 278 68 278 C60.85924039 260.52611278 58.88810467 245.26125164 59.21875 226.5 C59.23372056 223.95599166 59.2450847 221.41195983 59.25305176 218.86791992 C59.28014895 212.92887023 59.34274496 206.99108393 59.42384768 201.05254459 C59.51434945 194.27357424 59.55751966 187.49453435 59.59741116 180.71510696 C59.68025948 166.80940092 59.82028318 152.90476857 60 139 C58.91424683 138.93624176 57.82849365 138.87248352 56.70983887 138.80679321 C55.2642358 138.71976081 53.81863878 138.63262779 52.37304688 138.54541016 C51.65993347 138.50380264 50.94682007 138.46219513 50.21209717 138.41932678 C15.93468425 136.33256583 -22.85324025 125.1403379 -49 102 C-49.71929687 101.38640625 -50.43859375 100.7728125 -51.1796875 100.140625 C-58.16434851 93.76217985 -63.36189181 84.9459646 -64.23828125 75.40625 C-64.65222548 59.19706553 -57.25608392 48.09481679 -46.5625 36.5703125 C-36.42847185 26.40538792 -25.08790772 18.1259906 -12.0078125 12.1328125 C-11.04572876 11.68566895 -11.04572876 11.68566895 -10.06420898 11.22949219 C-8.29834382 10.42546876 -6.51481583 9.6605654 -4.73046875 8.8984375 C-1.13250321 6.39684773 -0.78502335 4.21012521 0 0 Z " fill="#E5171D" transform="translate(236,266)"/>
<path d="M0 0 C4.83983231 4.65368491 6.95927898 8.54606034 7.3125 15.375 C6.14457376 22.64209663 2.58424172 26.90035459 -3.140625 31.23046875 C-9.22045322 35.30395366 -17.10704831 40.375 -24.6875 40.375 C-24.51992188 41.50679687 -24.35234375 42.63859375 -24.1796875 43.8046875 C-23.97337625 45.2863774 -23.76767883 46.76815286 -23.5625 48.25 C-23.39427734 49.36955078 -23.39427734 49.36955078 -23.22265625 50.51171875 C-22.95983554 52.45659197 -22.8158485 54.41665038 -22.6875 56.375 C-23.3475 57.035 -24.0075 57.695 -24.6875 58.375 C-25.0175 52.765 -25.3475 47.155 -25.6875 41.375 C-28.265625 42.2 -30.84375 43.025 -33.5 43.875 C-59.11292549 50.67998163 -90.06252207 47.89569429 -115.6875 42.375 C-116.0175 44.685 -116.3475 46.995 -116.6875 49.375 C-117.6775 49.705 -118.6675 50.035 -119.6875 50.375 C-119.3575 47.075 -119.0275 43.775 -118.6875 40.375 C-119.326875 40.2925 -119.96625 40.21 -120.625 40.125 C-130.70923651 37.65539106 -141.80932552 32.10319847 -147.6875 23.375 C-150.13819084 18.96375649 -151.3151971 15.48720934 -150.375 10.4140625 C-147.68363832 2.43172842 -140.79898282 -2.70081098 -133.6875 -6.625 C-97.09537281 -24.55428492 -33.04881683 -27.59066377 0 0 Z " fill="#E5181E" transform="translate(377.6875,101.625)"/>
<path d="M0 0 C6.6 0 13.2 0 20 0 C20.18658389 14.72706455 20.32865755 29.45387111 20.41449738 44.18188572 C20.45544504 51.02311948 20.51108589 57.86359767 20.60351562 64.7043457 C20.69292008 71.32444739 20.73847247 77.94397954 20.75901794 84.56471062 C20.77363094 87.07175875 20.80215875 89.57877149 20.84584045 92.08548164 C21.13257718 109.24594634 18.82336575 123.18852398 12 139 C10.68 139 9.36 139 8 139 C0.85924039 121.52611278 -1.11189533 106.26125164 -0.78125 87.5 C-0.76627944 84.95599166 -0.7549153 82.41195983 -0.74694824 79.86791992 C-0.71985105 73.92887023 -0.65725504 67.99108393 -0.57615232 62.05254459 C-0.48565055 55.27357424 -0.44248034 48.49453435 -0.40258884 41.71510696 C-0.3197404 27.80938017 -0.178039 13.90480544 0 0 Z " fill="#878787" transform="translate(296,405)"/>
<path d="M0 0 C6.93645052 6.12039752 12.29151898 14.84429403 14 24 C14.21848794 28.01532282 14.18346627 31.98412722 14 36 C12.68 36.66 11.36 37.32 10 38 C9.34 37.01 8.68 36.02 8 35 C8.875 31.3125 8.875 31.3125 10 28 C9.34 28 8.68 28 8 28 C7.34 23.05 6.68 18.1 6 13 C4.02 12.34 2.04 11.68 0 11 C0 10.34 0 9.68 0 9 C0.66 8.67 1.32 8.34 2 8 C1.67 7.05125 1.34 6.1025 1 5.125 C0 2 0 2 0 0 Z " fill="#E51C20" transform="translate(426,308)"/>
<path d="M0 0 C4.45831982 -0.02891546 8.91661569 -0.04676981 13.375 -0.0625 C14.64601563 -0.07087891 15.91703125 -0.07925781 17.2265625 -0.08789062 C19.04414063 -0.09272461 19.04414063 -0.09272461 20.8984375 -0.09765625 C22.57945557 -0.10551147 22.57945557 -0.10551147 24.29443359 -0.11352539 C27 0 27 0 29 1 C29 1.66 29 2.32 29 3 C19.43 2.67 9.86 2.34 0 2 C0 1.34 0 0.68 0 0 Z " fill="#E73D45" transform="translate(293,83)"/>
<path d="M0 0 C3.90455937 1.42502167 7.24835962 3.26652127 10.75 5.5 C11.71421875 6.1084375 12.6784375 6.716875 13.671875 7.34375 C16 9 16 9 17 11 C15.35 11.33 13.7 11.66 12 12 C11.608125 11.34 11.21625 10.68 10.8125 10 C9.14583333 7.70833333 9.14583333 7.70833333 6.3125 7.75 C5.1678125 7.87375 5.1678125 7.87375 4 8 C4.33 7.01 4.66 6.02 5 5 C4.01 4.67 3.02 4.34 2 4 C0.8125 1.9375 0.8125 1.9375 0 0 Z " fill="#E53035" transform="translate(390,280)"/>
<path d="M0 0 C0.33 0 0.66 0 1 0 C1.70147833 3.41395062 2.38372236 6.83146969 3.0625 10.25 C3.26166016 11.21808594 3.46082031 12.18617188 3.66601562 13.18359375 C3.84970703 14.11816406 4.03339844 15.05273438 4.22265625 16.015625 C4.39547119 16.87446289 4.56828613 17.73330078 4.74633789 18.61816406 C5.00554788 21.05209351 4.75084609 22.68898463 4 25 C3.67 24.01 3.34 23.02 3 22 C2.01 22 1.02 22 0 22 C0.01740234 20.57107422 0.01740234 20.57107422 0.03515625 19.11328125 C0.04417969 17.85902344 0.05320312 16.60476562 0.0625 15.3125 C0.07410156 14.07113281 0.08570313 12.82976562 0.09765625 11.55078125 C0.10566804 8.10905041 0.10566804 8.10905041 -0.56640625 5.23046875 C-1 3 -1 3 0 0 Z " fill="#D81A1E" transform="translate(363,202)"/>
<path d="M0 0 C1.41623216 -0.05447047 2.83308191 -0.09300508 4.25 -0.125 C5.03890625 -0.14820313 5.8278125 -0.17140625 6.640625 -0.1953125 C9.22766653 0.01884657 10.74802541 0.75736709 13 2 C13.763125 2.144375 14.52625 2.28875 15.3125 2.4375 C18.80742186 3.16899527 21.74618987 4.53259543 25 6 C21.57032105 7.16983989 19.45660565 6.81325413 16.015625 5.78515625 C15.08105469 5.51123047 14.14648438 5.23730469 13.18359375 4.95507812 C12.21550781 4.66052734 11.24742187 4.36597656 10.25 4.0625 C9.26644531 3.77181641 8.28289062 3.48113281 7.26953125 3.18164062 C4.84356612 2.46327231 2.42072642 1.73579178 0 1 C0 0.67 0 0.34 0 0 Z " fill="#E93A44" transform="translate(235,393)"/>
<path d="M0 0 C2.93200474 2.85276137 5.64315404 5.65079784 8 9 C7.67 9.66 7.34 10.32 7 11 C4.69 11 2.38 11 0 11 C0 10.34 0 9.68 0 9 C0.66 8.67 1.32 8.34 2 8 C1.67 7.05125 1.34 6.1025 1 5.125 C0 2 0 2 0 0 Z " fill="#E72E33" transform="translate(426,308)"/>
<path d="M0 0 C0.99 0 1.98 0 3 0 C3 0.66 3 1.32 3 2 C3.66 2 4.32 2 5 2 C5 1.34 5 0.68 5 0 C7.88575819 0.39803561 8.82189513 0.79009069 10.75 3.0625 C11.36875 4.0215625 11.36875 4.0215625 12 5 C8.30962722 6.37095624 6.29116165 5.60010967 2.75 4.0625 C1.85796875 3.68222656 0.9659375 3.30195313 0.046875 2.91015625 C-0.62859375 2.60980469 -1.3040625 2.30945313 -2 2 C-1.34 1.34 -0.68 0.68 0 0 Z " fill="#E9292E" transform="translate(219,385)"/>
<path d="M0 0 C2 3.75 2 3.75 2 6 C1.34 6 0.68 6 0 6 C0.33 7.216875 0.66 8.43375 1 9.6875 C1.80322213 12.87210604 2.20641973 15.6972843 2 19 C1.34 18.34 0.68 17.68 0 17 C-0.99 17.99 -1.98 18.98 -3 20 C-2.33644956 13.25390382 -1.28134207 6.65551466 0 0 Z " fill="#CF272A" transform="translate(251,186)"/>
<path d="M0 0 C0.66 0.33 1.32 0.66 2 1 C1.67 1.66 1.34 2.32 1 3 C1 3.66 1 4.32 1 5 C0.13712228 7.76120869 -0.70516592 10.41033184 -2 13 C-3.32 13 -4.64 13 -6 13 C-6 11 -6 11 -3.5 8.375 C-2.675 7.59125 -1.85 6.8075 -1 6 C-1.99 6.33 -2.98 6.66 -4 7 C-3.39816251 4.97954558 -2.72693904 2.97888961 -2 1 C-1.34 0.67 -0.68 0.34 0 0 Z " fill="#DF1516" transform="translate(182,315)"/>
<path d="M0 0 C0.66 0.33 1.32 0.66 2 1 C1.25 3.4375 1.25 3.4375 0 6 C-1.32303717 6.3721042 -2.65737935 6.70630173 -4 7 C-5.28436734 8.9837767 -5.28436734 8.9837767 -6 11 C-6.66 11 -7.32 11 -8 11 C-8.33 11.66 -8.66 12.32 -9 13 C-9.66 12.67 -10.32 12.34 -11 12 C-3.70159453 3.55353075 -3.70159453 3.55353075 0 0 Z " fill="#E5424A" transform="translate(195,297)"/>
<path d="M0 0 C0.33 0.99 0.66 1.98 1 3 C1.66 3 2.32 3 3 3 C3 4.32 3 5.64 3 7 C2.01 7.495 2.01 7.495 1 8 C0.855625 9.093125 0.71125 10.18625 0.5625 11.3125 C0.00822062 14.94610928 -0.57074951 16.35951034 -3 19 C-2.37679879 12.56025419 -1.35991738 6.32427599 0 0 Z " fill="#D42A2F" transform="translate(243,229)"/>
<path d="M0 0 C1.98 0.66 3.96 1.32 6 2 C6 2.66 6 3.32 6 4 C6.99 3.67 7.98 3.34 9 3 C9.66 5.31 10.32 7.62 11 10 C7.81326038 8.59698853 5.67778594 6.92234929 3.25 4.4375 C2.63640625 3.81746094 2.0228125 3.19742187 1.390625 2.55859375 C0 1 0 1 0 0 Z " fill="#E53137" transform="translate(181,361)"/>
<path d="M0 0 C0.33 0.99 0.66 1.98 1 3 C0.67 3.66 0.34 4.32 0 5 C0.66 5 1.32 5 2 5 C1.1875 6.9375 1.1875 6.9375 0 9 C-0.99 9.33 -1.98 9.66 -3 10 C-3.33 10.66 -3.66 11.32 -4 12 C-5 9 -5 9 -4.2578125 6.9921875 C-3.88398438 6.29351562 -3.51015625 5.59484375 -3.125 4.875 C-2.75632813 4.17117188 -2.38765625 3.46734375 -2.0078125 2.7421875 C-1 1 -1 1 0 0 Z " fill="#E82F37" transform="translate(179,316)"/>
<path d="M0 0 C0.33 0 0.66 0 1 0 C1.36463732 1.74784829 1.7163078 3.49840502 2.0625 5.25 C2.25972656 6.22453125 2.45695312 7.1990625 2.66015625 8.203125 C2.98397535 10.868119 2.85503199 12.48871723 2 15 C2 14.01 2 13.02 2 12 C1.01 12 0.02 12 -1 12 C-2.45606519 7.47907032 -1.27032841 4.48351204 0 0 Z " fill="#D4272A" transform="translate(371,244)"/>
<path d="M0 0 C0.90105469 0.00902344 1.80210937 0.01804687 2.73046875 0.02734375 C3.41753906 0.03894531 4.10460937 0.05054687 4.8125 0.0625 C2.38668129 2.48831871 0.73816131 3.02605664 -2.66796875 3.16015625 C-3.56128906 3.14855469 -4.45460938 3.13695313 -5.375 3.125 C-6.72658203 3.11146484 -6.72658203 3.11146484 -8.10546875 3.09765625 C-8.79253906 3.08605469 -9.47960937 3.07445313 -10.1875 3.0625 C-7.02470604 -0.10029396 -4.26614261 -0.05540445 0 0 Z " fill="#EA242F" transform="translate(288.1875,83.9375)"/>
<path d="M0 0 C2.64 0.66 5.28 1.32 8 2 C4.89576443 3.68054361 1.83501066 4.73989499 -1.5625 5.6875 C-2.51253906 5.95949219 -3.46257812 6.23148437 -4.44140625 6.51171875 C-7 7 -7 7 -10 6 C-6.38026598 4.68373308 -3.90432869 4 0 4 C0 2.68 0 1.36 0 0 Z " fill="#E33C40" transform="translate(362,393)"/>
<path d="M0 0 C3.96 1.98 7.92 3.96 12 6 C11.01 6.66 10.02 7.32 9 8 C9 7.34 9 6.68 9 6 C6.69 6.33 4.38 6.66 2 7 C1.34 4.69 0.68 2.38 0 0 Z " fill="#E3373A" transform="translate(376,272)"/>
<path d="M0 0 C2.92307692 5.84615385 2.92307692 5.84615385 3 9 C1.35 10.65 -0.3 12.3 -2 14 C-1.34 9.38 -0.68 4.76 0 0 Z " fill="#D6242A" transform="translate(257,154)"/>
<path d="M0 0 C1.05960937 0.00676758 1.05960937 0.00676758 2.140625 0.01367188 C3.88545275 0.02546125 5.630237 0.04339676 7.375 0.0625 C7.375 0.3925 7.375 0.7225 7.375 1.0625 C0.32046999 2.26693195 -6.45937211 3.34350502 -13.625 3.0625 C-8.75827604 0.62913802 -5.46782928 -0.0655736 0 0 Z " fill="#E4404A" transform="translate(337.625,400.9375)"/>
<path d="M0 0 C2.87436167 2.87436167 2.96762555 5.00027708 3.09765625 9.015625 C3.08605469 10.08296875 3.07445312 11.1503125 3.0625 12.25 C3.05347656 13.32765625 3.04445313 14.4053125 3.03515625 15.515625 C3.02355469 16.33546875 3.01195312 17.1553125 3 18 C2.67 18 2.34 18 2 18 C1.67 15.36 1.34 12.72 1 10 C0.67 10 0.34 10 0 10 C0 6.7 0 3.4 0 0 Z " fill="#EC3D43" transform="translate(437,326)"/>
<path d="M0 0 C0.33 0 0.66 0 1 0 C1 2.64 1 5.28 1 8 C1.66 8.33 2.32 8.66 3 9 C0.69 9.33 -1.62 9.66 -4 10 C-4.33 10.99 -4.66 11.98 -5 13 C-5 12.01 -5 11.02 -5 10 C-5.66 9.67 -6.32 9.34 -7 9 C-6.21625 8.814375 -5.4325 8.62875 -4.625 8.4375 C-1.60623658 7.16038373 -1.60623658 7.16038373 -0.6875 3.375 C-0.460625 2.26125 -0.23375 1.1475 0 0 Z " fill="#DB2D35" transform="translate(236,266)"/>
<path d="M0 0 C0.66 0 1.32 0 2 0 C2 0.66 2 1.32 2 2 C2.804375 2.12375 3.60875 2.2475 4.4375 2.375 C5.7059375 2.684375 5.7059375 2.684375 7 3 C7.33 3.66 7.66 4.32 8 5 C7.34 5.66 6.68 6.32 6 7 C3.36 5.35 0.72 3.7 -2 2 C-1.34 1.34 -0.68 0.68 0 0 Z " fill="#E93038" transform="translate(237,129)"/>
<path d="M0 0 C0.66 0.33 1.32 0.66 2 1 C1.67 1.66 1.34 2.32 1 3 C1.66 3 2.32 3 3 3 C3 2.34 3 1.68 3 1 C3.99 1.33 4.98 1.66 6 2 C5.34 2 4.68 2 4 2 C3.67 4.64 3.34 7.28 3 10 C2.67 8.68 2.34 7.36 2 6 C1.01 6 0.02 6 -1 6 C-1.042721 4.33388095 -1.04063832 2.66617115 -1 1 C-0.67 0.67 -0.34 0.34 0 0 Z " fill="#E63134" transform="translate(257,136)"/>
<path d="M0 0 C0 1.32 0 2.64 0 4 C-3.3 3.67 -6.6 3.34 -10 3 C-7.28464405 0.28464405 -3.67870689 -1.83935344 0 0 Z " fill="#E33437" transform="translate(264,89)"/>
<path d="M0 0 C0.99 0.66 1.98 1.32 3 2 C5.11280345 2.63292383 5.11280345 2.63292383 7 3 C6.67 3.99 6.34 4.98 6 6 C2.22454612 4.90931332 -0.47043472 4.0916909 -3 1 C-2.01 0.67 -1.02 0.34 0 0 Z " fill="#E53138" transform="translate(207,378)"/>
<path d="M0 0 C1.65 0 3.3 0 5 0 C2.19195732 2.96404505 -0.18315774 5.44499019 -4 7 C-4.33 5.68 -4.66 4.36 -5 3 C-3.35 3 -1.7 3 0 3 C0 2.01 0 1.02 0 0 Z " fill="#E3373D" transform="translate(415,371)"/>
<path d="M0 0 C0.33 0 0.66 0 1 0 C1 3.3 1 6.6 1 10 C1.66 10 2.32 10 3 10 C3.33 10.99 3.66 11.98 4 13 C3.34 13.66 2.68 14.32 2 15 C-0.93161919 9.37129115 -1.2019586 6.22833095 0 0 Z " fill="#E23F46" transform="translate(228,110)"/>
<path d="M0 0 C0.33 0 0.66 0 1 0 C1.66 4.62 2.32 9.24 3 14 C2.34 14 1.68 14 1 14 C0.63659714 12.23103898 0.28459117 10.45973374 -0.0625 8.6875 C-0.25972656 7.70136719 -0.45695312 6.71523437 -0.66015625 5.69921875 C-1 3 -1 3 0 0 Z " fill="#D32934" transform="translate(363,202)"/>
<path d="M0 0 C5.53846154 -0.36923077 5.53846154 -0.36923077 7.875 1.5 C8.24625 1.995 8.6175 2.49 9 3 C2.9453125 3.9765625 2.9453125 3.9765625 1 4 C0.34 3.34 -0.32 2.68 -1 2 C-0.67 1.34 -0.34 0.68 0 0 Z " fill="#DE1412" transform="translate(252,393)"/>
<path d="M0 0 C0 0.66 0 1.32 0 2 C-0.99 2 -1.98 2 -3 2 C-2.67 2.99 -2.34 3.98 -2 5 C-4.375 5.625 -4.375 5.625 -7 6 C-7.66 5.34 -8.32 4.68 -9 4 C-2.25 0 -2.25 0 0 0 Z " fill="#E9353B" transform="translate(222,280)"/>
<path d="M0 0 C2.97 0.495 2.97 0.495 6 1 C3.38026734 3.61973266 1.64833578 3.70813314 -2 4 C-4.375 3.0625 -4.375 3.0625 -6 2 C-4.02 2 -2.04 2 0 2 C0 1.34 0 0.68 0 0 Z " fill="#E72B30" transform="translate(386,386)"/>
<path d="M0 0 C1.32 0.33 2.64 0.66 4 1 C-0.95 3.475 -0.95 3.475 -6 6 C-6 5.01 -6 4.02 -6 3 C-4.02 2.67 -2.04 2.34 0 2 C0 1.34 0 0.68 0 0 Z " fill="#EA4046" transform="translate(404,379)"/>
<path d="M0 0 C1.32 0.33 2.64 0.66 4 1 C4.33 2.32 4.66 3.64 5 5 C3.68 4.67 2.36 4.34 1 4 C0.67 2.68 0.34 1.36 0 0 Z M0 5 C0.66 5 1.32 5 2 5 C1.67 5.99 1.34 6.98 1 8 C0.67 7.01 0.34 6.02 0 5 Z " fill="#DE1514" transform="translate(424,312)"/>
<path d="M0 0 C0.0825 0.598125 0.165 1.19625 0.25 1.8125 C1.20455872 4.5966296 2.57132271 5.43311142 5 7 C2.625 7.1875 2.625 7.1875 0 7 C-2 4 -2 4 -2 1 C-1.34 0.67 -0.68 0.34 0 0 Z " fill="#DB1814" transform="translate(411,295)"/>
<path d="M0 0 C0.33 0 0.66 0 1 0 C1 2.64 1 5.28 1 8 C0.01 8.33 -0.98 8.66 -2 9 C-1.34 6.03 -0.68 3.06 0 0 Z " fill="#D1141E" transform="translate(260,143)"/>
</svg>
